<?xml version="1.0" standalone="no"?>
<!DOCTYPE svg PUBLIC "-//W3C//DTD SVG 20010904//EN"
 "http://www.w3.org/TR/2001/REC-SVG-20010904/DTD/svg10.dtd">
<svg version="1.0" xmlns="http://www.w3.org/2000/svg"
 width="682.000000pt" height="812.000000pt" viewBox="0 0 682.000000 812.000000"
 preserveAspectRatio="xMidYMid meet">

<g transform="translate(0.000000,812.000000) scale(0.100000,-0.100000)"
fill="#000000" stroke="none">
<path d="M2545 8110 c-241 -35 -453 -186 -566 -403 -60 -116 -79 -192 -86
-339 l-6 -127 -736 -3 c-735 -3 -736 -3 -795 -26 -183 -69 -302 -204 -341
-387 -11 -52 -15 -143 -15 -362 l0 -293 3410 0 3410 0 0 308 c0 242 -3 320
-15 366 -53 201 -217 354 -415 386 -40 6 -333 10 -762 10 l-698 0 0 106 c0
125 -20 221 -66 322 -110 241 -329 405 -588 441 -88 13 -1648 13 -1731 1z
m1735 -516 c51 -24 103 -71 127 -118 12 -21 18 -64 21 -133 l4 -103 -1022 0
-1022 0 4 98 c5 114 24 160 90 216 78 67 46 65 943 63 798 -2 811 -2 855 -23z"/>
<path d="M296 5793 c2 -10 22 -146 44 -303 39 -283 118 -844 291 -2075 49
-352 125 -894 169 -1205 44 -311 113 -808 155 -1105 129 -919 144 -1025 155
-1046 6 -11 26 -29 43 -39 31 -20 71 -20 2255 -20 2387 0 2249 -3 2296 48 14
17 27 84 62 329 24 169 100 711 169 1203 147 1049 184 1308 304 2165 50 352
133 946 185 1320 53 374 98 695 101 713 l6 32 -3120 0 c-2965 0 -3119 -1
-3115 -17z m1630 -928 c47 -19 109 -80 132 -128 10 -23 22 -69 26 -102 21
-207 298 -3401 298 -3451 1 -77 -25 -137 -82 -187 -56 -52 -102 -69 -175 -68
-110 1 -218 80 -244 179 -11 40 -311 3458 -311 3532 1 173 191 293 356 225z
m1601 2 c42 -22 97 -79 120 -125 17 -35 18 -115 21 -1825 l2 -1788 -21 -50
c-26 -60 -101 -130 -157 -147 -124 -38 -248 15 -310 132 l-27 51 0 1790 c0
1631 1 1793 16 1826 26 55 79 110 134 136 42 20 62 23 120 20 39 -2 84 -11
102 -20z m1578 -6 c92 -41 149 -134 147 -241 0 -36 -37 -479 -81 -985 -45
-506 -113 -1279 -151 -1718 -45 -508 -75 -810 -84 -832 -20 -48 -85 -115 -131
-136 -26 -12 -63 -19 -105 -19 -141 0 -244 90 -257 224 -2 28 16 283 41 566
44 499 179 2033 232 2645 14 165 30 316 35 336 20 77 106 158 192 180 42 10
112 2 162 -20z"/>
</g>
</svg>
